# xmcd
#
# Track frame offsets:
#	179
#	9801
#	23911
#	39655
#	53460
#	70077
#	81570
#	92306
#	105716
#	127070
#
# Disc length: 1972 seconds
# Revision: 0
# Processed by: cddbd v1.5.2PL0 Copyright (c) Steve Scherf et al.
# Submitted via: dBpowerAMP V12.0
#
DISCID=7307b20a
DTITLE=Johnny Cash - Complete Columbia Album Collection, Disc 50 [Classic Christmas]
DYEAR=1980
DGENRE=Country
TTITLE0=Joy to the World
TTITLE1=Away in a Manger
TTITLE2=O Little Town of Bethlehem
TTITLE3=Silent Night, Holy Night
TTITLE4=It Came Upon a Midnight Clear
TTITLE5=Hark! The Herald Angels Sing
TTITLE6=I Heard the Bells on Christmas Day
TTITLE7=O Come All Ye Faithful
TTITLE8=Little Gray Donkey
TTITLE9=The Christmas Guest
EXTD=
EXTT0=
EXTT1=
EXTT2=
EXTT3=
EXTT4=
EXTT5=
EXTT6=
EXTT7=
EXTT8=
EXTT9=
PLAYORDER=
